<?xml version="1.0" standalone="no"?>
<!DOCTYPE svg PUBLIC "-//W3C//DTD SVG 20010904//EN"
 "http://www.w3.org/TR/2001/REC-SVG-20010904/DTD/svg10.dtd">
<svg version="1.0" xmlns="http://www.w3.org/2000/svg"
 width="1600.000000pt" height="1600.000000pt" viewBox="0 0 1600.000000 1600.000000"
 preserveAspectRatio="xMidYMid meet">
<metadata>
Created by potrace 1.11, written by Peter Selinger 2001-2013
</metadata>
<g transform="translate(0.000000,1600.000000) scale(0.100000,-0.100000)"
fill="#000000" stroke="none">
<path d="M0 8000 l0 -3890 8000 0 8000 0 0 3890 0 3890 -8000 0 -8000 0 0
-3890z m4250 2160 l0 -330 -422 -2 -423 -3 -5 -2110 -5 -2110 -362 -3 -363 -2
-2 2112 -3 2113 -427 3 -428 2 0 330 0 330 1220 0 1220 0 0 -330z m1715 -1006
c259 -735 475 -1343 482 -1353 8 -11 15 -13 23 -5 5 6 64 168 129 360 66 192
248 727 406 1189 158 462 310 909 338 993 l52 152 352 0 353 0 -2 -2442 -3
-2443 -347 -3 -348 -2 0 1525 c0 1447 -1 1525 -18 1525 -14 0 -82 -196 -382
-1095 l-365 -1095 -190 0 -191 0 -364 1093 c-286 856 -369 1093 -382 1095 -17
3 -18 -75 -18 -1522 l0 -1526 -347 2 -348 3 -3 2443 -2 2442 352 0 353 0 470
-1336z m4505 1326 c0 -6 -205 -716 -456 -1578 -251 -862 -476 -1635 -500
-1718 -24 -83 -46 -159 -50 -168 -6 -15 24 -16 345 -16 l351 0 2 683 3 682
345 0 345 0 3 -697 2 -698 173 -2 172 -3 0 -315 0 -315 -172 -3 -173 -2 0
-380 0 -380 -350 0 -350 0 0 380 0 380 -682 2 -683 3 -3 278 -2 279 44 151
c25 84 137 467 251 852 113 385 296 1004 405 1375 109 371 233 789 274 928 41
140 76 256 79 259 5 5 431 29 555 32 44 0 72 -3 72 -9z m2072 -1927 l3 -1938
21 -65 c76 -236 214 -340 449 -340 237 0 381 111 452 347 17 54 18 181 21
1996 l2 1937 350 0 350 0 0 -1862 c0 -1152 -4 -1899 -10 -1958 -69 -661 -420
-1053 -1003 -1121 -128 -15 -323 -6 -437 20 -527 120 -832 507 -889 1131 -7
76 -11 745 -11 1953 l0 1837 350 0 350 0 2 -1937z"/>
</g>
</svg>
