<?xml version="1.0" standalone="no"?>
<!DOCTYPE svg PUBLIC "-//W3C//DTD SVG 20010904//EN"
 "http://www.w3.org/TR/2001/REC-SVG-20010904/DTD/svg10.dtd">
<svg version="1.0" xmlns="http://www.w3.org/2000/svg"
 width="638.000000pt" height="638.000000pt" viewBox="0 0 638.000000 638.000000"
 preserveAspectRatio="xMidYMid meet">
<metadata>
Created by potrace 1.11, written by Peter Selinger 2001-2013
</metadata>
<g transform="translate(0.000000,638.000000) scale(0.100000,-0.100000)"
fill="#000000" stroke="none">
<path d="M363 6365 c-176 -38 -311 -175 -349 -354 -21 -100 -21 -5543 1 -5644
38 -180 173 -314 354 -353 99 -21 5543 -21 5642 0 181 39 316 173 354 353 22
101 22 5544 1 5644 -39 181 -173 316 -353 354 -99 21 -5554 21 -5650 0z m1834
-1724 c547 -112 976 -539 1068 -1065 19 -113 19 -328 0 -440 -110 -632 -679
-1096 -1345 -1096 -276 0 -557 86 -786 241 -98 66 -248 209 -323 310 -154 204
-251 484 -251 726 l0 93 62 -46 c150 -111 287 -156 473 -157 140 -1 219 16
340 73 265 123 439 381 453 671 6 126 -8 213 -51 329 -41 108 -92 186 -183
277 l-71 72 55 12 c165 34 391 34 559 0z m-872 -195 c25 -51 30 -70 29 -130
-1 -90 -28 -150 -95 -210 -113 -101 -277 -100 -387 2 -18 17 -32 35 -32 41 0
19 160 179 234 235 99 73 188 127 206 124 8 -2 28 -30 45 -62z m4203 -1140
c204 -107 202 -638 -4 -1049 -103 -203 -242 -337 -352 -337 -143 0 -238 213
-217 490 6 92 21 189 29 197 2 3 19 -3 37 -12 68 -36 158 4 223 98 99 144 113
354 31 462 l-34 44 45 41 c80 73 177 100 242 66z m-318 -315 c0 -65 -34 -127
-88 -162 -25 -16 -56 -29 -68 -29 l-23 0 18 53 c19 53 81 183 109 225 l16 24
17 -34 c10 -18 18 -53 19 -77z m-1117 -501 c195 -73 403 -392 452 -694 17
-107 20 -336 4 -439 -30 -198 -103 -382 -180 -451 -38 -35 -45 -38 -89 -34
-66 7 -179 62 -330 164 -207 138 -568 436 -595 491 -33 68 -11 123 119 286
140 176 159 218 176 385 19 180 42 232 120 272 87 44 233 53 323 20z"/>
</g>
</svg>
