<svg id="Слой_1" xmlns="http://www.w3.org/2000/svg" viewBox="0 0 50.4 24.5"><style>.st0{fill:#cb2128}.st1{fill:#fff}</style><g id="XMLID_402_"><path id="XMLID_401_" class="st0" d="M0 0h50.4v24.5H0z"/><g id="XMLID_392_"><path id="XMLID_399_" class="st1" d="M13.4 4.4v2.1h-2.7v13.3H8.4V6.5H5.7V4.4h7.7z"/><path id="XMLID_397_" class="st1" d="M15.1 4.4h2.2l3 8.5h.1l2.9-8.5h2.2v15.4h-2.2v-9.6h-.1l-2.3 6.9h-1.2l-2.3-6.9h-.1v9.6h-2.2V4.4z"/><path id="XMLID_395_" class="st1" d="M33 4.4l-3.2 11H32v-4.3h2.2v4.4h1.1v2h-1.1v2.4H32v-2.4h-4.3v-1.8L31 4.5l2-.1z"/><path id="XMLID_393_" class="st1" d="M39.5 4.4v11.7c0 1.1.5 1.8 1.5 1.8s1.5-.7 1.5-1.8V4.4h2.2v11.3c0 3.4-2 4.3-3.7 4.3-1.6 0-3.7-.9-3.7-4.3V4.4h2.2z"/></g></g></svg>