<svg id="Слой_1" xmlns="http://www.w3.org/2000/svg" viewBox="0 0 157.1 24.5"><style>.st0{fill:#cb2128}.st1{fill:#fff}</style><g id="XMLID_402_"><path id="XMLID_401_" class="st0" d="M0 0h50.4v24.5H0z"/><g id="XMLID_392_"><path id="XMLID_399_" class="st1" d="M13.4 4.4v2.1h-2.7v13.3H8.4V6.5H5.7V4.4h7.7z"/><path id="XMLID_397_" class="st1" d="M15.1 4.4h2.2l3 8.5h.1l2.9-8.5h2.2v15.4h-2.2v-9.6h-.1l-2.3 6.9h-1.2l-2.3-6.9h-.1v9.6h-2.2V4.4z"/><path id="XMLID_395_" class="st1" d="M33 4.4l-3.2 11H32v-4.3h2.2v4.4h1.1v2h-1.1v2.4H32v-2.4h-4.3v-1.8L31 4.5h2z"/><path id="XMLID_393_" class="st1" d="M39.5 4.4v11.7c0 1.1.5 1.8 1.5 1.8s1.5-.7 1.5-1.8V4.4h2.2v11.3c0 3.4-2 4.3-3.7 4.3-1.6 0-3.7-.9-3.7-4.3V4.4h2.2z"/></g><g id="XMLID_354_"><path id="XMLID_390_" class="st1" d="M60.6 7.2v1.4h-1.8v8.6h-1.4V8.6h-1.8V7.2h5z"/><path id="XMLID_388_" class="st1" d="M61.7 7.2h4.2v1.4h-2.8v2.9h2.5v1.3h-2.5v3.1H66v1.4h-4.3V7.2z"/><path id="XMLID_386_" class="st1" d="M68.8 7.2v8.6h3v1.4h-4.5v-10h1.5z"/><path id="XMLID_384_" class="st1" d="M73.2 7.2h4.2v1.4h-2.8v2.9h2.5v1.3h-2.5v3.1h2.9v1.4h-4.3V7.2z"/><path id="XMLID_382_" class="st1" d="M78.8 7.2h1.4l2 5.5h.1l1.9-5.5h1.4v10h-1.4V11H84l-1.5 4.5h-.8L80.3 11h-.1v6.3h-1.4V7.2z"/><path id="XMLID_379_" class="st1" d="M90.7 17.2l-.5-2.1h-1.8l-.4 2.1h-1.4l2.2-10H90l2.2 10h-1.5zM89.3 10l-.7 3.8h1.5l-.8-3.8z"/><path id="XMLID_376_" class="st1" d="M95.3 7.2c.7 0 1.8 0 2.5.8.3.4.5 1 .5 1.7v.8c0 .6-.2 1.2-.5 1.6-.2.2-.5.4-.8.5l1.6 4.6H97l-1.4-4.3h-.8v4.3h-1.4v-10h1.9zm-.5 4.4h.8c.3 0 .6-.1.9-.3.3-.3.3-.5.3-.9v-.7c0-.4-.1-.7-.3-.9-.3-.3-.6-.3-.9-.3h-.7v3.1z"/><path id="XMLID_374_" class="st1" d="M101.2 7.2V12l2.3-4.8h1.5l-2 4.1 2.4 5.9h-1.6l-1.7-4.5-.9 1.5v2.9h-1.4v-10h1.4z"/><path id="XMLID_372_" class="st1" d="M106.5 7.2h4.2v1.4h-2.8v2.9h2.5v1.3h-2.5v3.1h2.9v1.4h-4.3V7.2z"/><path id="XMLID_370_" class="st1" d="M116.6 7.2v1.4h-1.8v8.6h-1.4V8.6h-1.8V7.2h5z"/><path id="XMLID_368_" class="st1" d="M119.1 7.2v10h-1.4v-10h1.4z"/><path id="XMLID_366_" class="st1" d="M122.3 7.2l2.4 6.3V7.2h1.4v10h-1.4l-2.4-6.3v6.3h-1.4v-10h1.4z"/><path id="XMLID_364_" class="st1" d="M131.6 16.5c-.2.4-.5.6-.7.7-.4.2-.9.2-1.1.2-.5 0-1.1-.1-1.6-.7s-.5-1.3-.5-1.7V9.9c0-.6 0-1.2.5-1.8.6-.8 1.5-.9 2-.9.7 0 1.4.2 1.8.6.4.4.7 1 .7 2v.4h-1.4v-.6c0-.2 0-.6-.3-.8-.1-.1-.4-.3-.8-.3s-.6.2-.8.4c-.3.3-.3.7-.3 1.1v4.7c0 .3 0 .7.2 1 .2.2.5.4.8.4.3 0 .6-.2.8-.4.3-.3.3-.8.3-1.2v-1.3H130v-1.3h2.6v5.5h-.6l-.4-.9z"/><path id="XMLID_362_" class="st1" d="M137.6 7.2l-2.1 7.2h1.4v-2.8h1.4v2.8h.7v1.3h-.7v1.5h-1.4v-1.5H134v-1.2l2.1-7.3h1.5z"/><path id="XMLID_360_" class="st1" d="M143.2 13v4.2h-1.4V13l-2.1-5.7h1.6l1.2 4h.1l1.2-4h1.5l-2.1 5.7z"/><path id="XMLID_357_" class="st1" d="M145.6 9.9c0-.8.1-1.5.7-2.1.4-.4 1-.6 1.8-.6.7 0 1.3.2 1.8.6.7.6.7 1.4.7 2.1v4.7c0 .8-.1 1.5-.7 2.1-.4.4-1 .6-1.8.6-.7 0-1.3-.2-1.8-.6-.7-.6-.7-1.4-.7-2.1V9.9zm3.6-.3c0-.3 0-.6-.3-.9-.2-.2-.4-.3-.8-.3s-.6.1-.8.3c-.3.3-.3.6-.3.9v5.2c0 .3 0 .6.3.9.2.2.4.3.8.3s.6-.1.8-.3c.3-.3.3-.6.3-.9V9.6z"/><path id="XMLID_355_" class="st1" d="M153.7 7.2v7.6c0 .7.3 1.2 1 1.2.6 0 1-.5 1-1.2V7.2h1.4v7.4c0 2.2-1.3 2.8-2.4 2.8-1.1 0-2.4-.6-2.4-2.8V7.2h1.4z"/></g></g></svg>