<?xml version="1.0" encoding="utf-8"?>
<!-- Generator: Adobe Illustrator 22.0.1, SVG Export Plug-In . SVG Version: 6.00 Build 0)  -->
<svg version="1.1" id="Слой_1" xmlns="http://www.w3.org/2000/svg" xmlns:xlink="http://www.w3.org/1999/xlink" x="0px" y="0px"
	 viewBox="0 0 157.1 24.5" style="enable-background:new 0 0 157.1 24.5;" xml:space="preserve">
<style type="text/css">
	.st0{fill:#CB2128;}
	.st1{fill:#FFFFFF;}
</style>
<g id="XMLID_402_">
	<rect id="XMLID_401_" class="st0" width="50.4" height="24.5"/>
	<g id="XMLID_392_">
		<path id="XMLID_399_" class="st1" d="M13.4,4.4v2.1h-2.7v13.3H8.4V6.5H5.7V4.4H13.4z"/>
		<path id="XMLID_397_" class="st1" d="M15.1,4.4h2.2l3,8.5h0.1l2.9-8.5h2.2v15.4h-2.2v-9.6h-0.1l-2.3,6.9h-1.2l-2.3-6.9h-0.1v9.6
			h-2.2V4.4z"/>
		<path id="XMLID_395_" class="st1" d="M33,4.4l-3.2,11H32v-4.3h2.2v4.4h1.1v2h-1.1v2.4H32v-2.4h-4.3v-1.8l3.3-11.2H33z"/>
		<path id="XMLID_393_" class="st1" d="M39.5,4.4v11.7c0,1.1,0.5,1.8,1.5,1.8c1,0,1.5-0.7,1.5-1.8V4.4h2.2v11.3c0,3.4-2,4.3-3.7,4.3
			c-1.6,0-3.7-0.9-3.7-4.3V4.4H39.5z"/>
	</g>
	<g id="XMLID_354_">
		<path id="XMLID_390_" class="st1" d="M60.6,7.2v1.4h-1.8v8.6h-1.4V8.6h-1.8V7.2H60.6z"/>
		<path id="XMLID_388_" class="st1" d="M61.7,7.2h4.2v1.4h-2.8v2.9h2.5v1.3h-2.5v3.1H66v1.4h-4.3V7.2z"/>
		<path id="XMLID_386_" class="st1" d="M68.8,7.2v8.6h3v1.4h-4.5v-10H68.8z"/>
		<path id="XMLID_384_" class="st1" d="M73.2,7.2h4.2v1.4h-2.8v2.9h2.5v1.3h-2.5v3.1h2.9v1.4h-4.3V7.2z"/>
		<path id="XMLID_382_" class="st1" d="M78.8,7.2h1.4l2,5.5h0.1l1.9-5.5h1.4v10h-1.4V11H84l-1.5,4.5h-0.8L80.3,11h-0.1v6.3h-1.4V7.2
			z"/>
		<path id="XMLID_379_" class="st1" d="M90.7,17.2l-0.5-2.1h-1.8L88,17.2h-1.4l2.2-10H90l2.2,10H90.7z M89.3,10l-0.7,3.8h1.5
			L89.3,10z"/>
		<path id="XMLID_376_" class="st1" d="M95.3,7.2c0.7,0,1.8,0,2.5,0.8c0.3,0.4,0.5,1,0.5,1.7v0.8c0,0.6-0.2,1.2-0.5,1.6
			c-0.2,0.2-0.5,0.4-0.8,0.5l1.6,4.6H97l-1.4-4.3h-0.8v4.3h-1.4v-10H95.3z M94.8,11.6h0.8c0.3,0,0.6-0.1,0.9-0.3
			c0.3-0.3,0.3-0.5,0.3-0.9V9.7c0-0.4-0.1-0.7-0.3-0.9c-0.3-0.3-0.6-0.3-0.9-0.3h-0.7V11.6z"/>
		<path id="XMLID_374_" class="st1" d="M101.2,7.2V12l2.3-4.8h1.5l-2,4.1l2.4,5.9h-1.6l-1.7-4.5l-0.9,1.5v2.9h-1.4v-10H101.2z"/>
		<path id="XMLID_372_" class="st1" d="M106.5,7.2h4.2v1.4h-2.8v2.9h2.5v1.3h-2.5v3.1h2.9v1.4h-4.3V7.2z"/>
		<path id="XMLID_370_" class="st1" d="M116.6,7.2v1.4h-1.8v8.6h-1.4V8.6h-1.8V7.2H116.6z"/>
		<path id="XMLID_368_" class="st1" d="M119.1,7.2v10h-1.4v-10H119.1z"/>
		<path id="XMLID_366_" class="st1" d="M122.3,7.2l2.4,6.3V7.2h1.4v10h-1.4l-2.4-6.3v6.3h-1.4v-10H122.3z"/>
		<path id="XMLID_364_" class="st1" d="M131.6,16.5c-0.2,0.4-0.5,0.6-0.7,0.7c-0.4,0.2-0.9,0.2-1.1,0.2c-0.5,0-1.1-0.1-1.6-0.7
			c-0.5-0.6-0.5-1.3-0.5-1.7V9.9c0-0.6,0-1.2,0.5-1.8c0.6-0.8,1.5-0.9,2-0.9c0.7,0,1.4,0.2,1.8,0.6c0.4,0.4,0.7,1,0.7,2v0.4h-1.4
			V9.6c0-0.2,0-0.6-0.3-0.8c-0.1-0.1-0.4-0.3-0.8-0.3c-0.4,0-0.6,0.2-0.8,0.4c-0.3,0.3-0.3,0.7-0.3,1.1v4.7c0,0.3,0,0.7,0.2,1
			c0.2,0.2,0.5,0.4,0.8,0.4c0.3,0,0.6-0.2,0.8-0.4c0.3-0.3,0.3-0.8,0.3-1.2v-1.3h-1.2v-1.3h2.6v5.5H132L131.6,16.5z"/>
		<path id="XMLID_362_" class="st1" d="M137.6,7.2l-2.1,7.2h1.4v-2.8h1.4v2.8h0.7v1.3h-0.7v1.5h-1.4v-1.5H134v-1.2l2.1-7.3H137.6z"
			/>
		<path id="XMLID_360_" class="st1" d="M143.2,13v4.2h-1.4V13l-2.1-5.7h1.6l1.2,4h0.1l1.2-4h1.5L143.2,13z"/>
		<path id="XMLID_357_" class="st1" d="M145.6,9.9c0-0.8,0.1-1.5,0.7-2.1c0.4-0.4,1-0.6,1.8-0.6c0.7,0,1.3,0.2,1.8,0.6
			c0.7,0.6,0.7,1.4,0.7,2.1v4.7c0,0.8-0.1,1.5-0.7,2.1c-0.4,0.4-1,0.6-1.8,0.6c-0.7,0-1.3-0.2-1.8-0.6c-0.7-0.6-0.7-1.4-0.7-2.1V9.9
			z M149.2,9.6c0-0.3,0-0.6-0.3-0.9c-0.2-0.2-0.4-0.3-0.8-0.3c-0.4,0-0.6,0.1-0.8,0.3c-0.3,0.3-0.3,0.6-0.3,0.9v5.2
			c0,0.3,0,0.6,0.3,0.9c0.2,0.2,0.4,0.3,0.8,0.3c0.4,0,0.6-0.1,0.8-0.3c0.3-0.3,0.3-0.6,0.3-0.9V9.6z"/>
		<path id="XMLID_355_" class="st1" d="M153.7,7.2v7.6c0,0.7,0.3,1.2,1,1.2c0.6,0,1-0.5,1-1.2V7.2h1.4v7.4c0,2.2-1.3,2.8-2.4,2.8
			c-1.1,0-2.4-0.6-2.4-2.8V7.2H153.7z"/>
	</g>
</g>
</svg>
