<?xml version="1.0" encoding="utf-8"?>
<!-- Generator: Adobe Illustrator 22.0.1, SVG Export Plug-In . SVG Version: 6.00 Build 0)  -->
<svg version="1.1" id="Слой_1" xmlns="http://www.w3.org/2000/svg" xmlns:xlink="http://www.w3.org/1999/xlink" x="0px" y="0px"
	 viewBox="0 0 522 411" style="enable-background:new 0 0 522 411;" xml:space="preserve">
<path d="M264,181.9C264,181.8,264.1,182.1,264,181.9z M263.1,182.6c-0.5,0.3-1,0.5-1.5,0.8c-1,0.6-1.9,1.4-2.7,2.3
	c-1.3,1.6-2.2,3.5-3.3,5.3c-0.2,0.3-1.2,2.5-1.6,2.3c-0.2-0.1,0.1-1.1,0.1-1.2c0.2-0.6,0.4-1.1,0.6-1.6c0.8-1.8,1.7-3.6,2.9-5.2
	c0.8-1,1.9-1.9,3.1-2.6c0.6-0.3,1.2-0.6,1.9-0.7c0.1,0,1.2-0.3,1.3,0C264.1,182.2,263.2,182.5,263.1,182.6z M269,185.3
	C269,185.1,269,185.4,269,185.3z M268.3,185.7c-0.4,0.1-0.8,0.3-1.3,0.4c-0.8,0.3-1.5,0.6-2.3,1c-1.2,0.7-2.3,1.6-3.2,2.5
	c-0.2,0.2-1.2,1.5-1.4,1.1c-0.1-0.2,0.2-0.7,0.2-0.8c0.2-0.4,0.4-0.7,0.6-1c0.8-1.1,1.9-2,3.1-2.6c0.8-0.5,1.7-0.8,2.7-1
	c0.3-0.1,2.2-0.4,2.2,0.1C269,185.5,268.4,185.6,268.3,185.7z M274.4,189c-0.2,0.6-0.6,1.2-1,1.7c-0.8,1-1.8,2-2.8,2.8
	c-0.6,0.5-1.2,1-1.9,1.5c-1.2,0.8-2.5,1.2-3.8,1.6c-0.6,0.2-1.3,0.4-1.9,0.5c-0.4,0.1-0.8,0.2-1.2,0.2c-0.2,0-0.2-0.1-0.1-0.3
	c0.3-0.3,0.8-0.4,1.1-0.6c1.2-0.6,2.5-1,3.8-1.6c0.9-0.4,1.7-0.9,2.5-1.5c1-0.8,2-1.7,3-2.6c0.6-0.5,1.1-1,1.6-1.7
	c0.2-0.3,0.4-0.5,0.5-0.8c0.1-0.1,0.2-0.4,0.3-0.4C274.7,187.9,274.4,188.8,274.4,189z M274.4,187.9
	C274.2,187.8,274.5,187.9,274.4,187.9z M308.1,335.1c-0.4-0.8-0.8-1.6-1.1-2.4c-0.7-1.7-1.3-3.5-1.8-5.3c-0.8-3-1.3-6.1-1.5-9.2
	c0-1-0.1-1.9,0-2.9c0-0.8,0-1.6,0.2-2.3c0.2-0.6,0.3,0,0.4,0.3c0.1,0.8,0.2,1.7,0.2,2.5c0.3,3.3,0.7,6.6,1.4,9.8c0.5,2,1,4,1.7,6
	c0.3,1,0.7,1.9,1,2.9c0.1,0.2,0.8,1.8,0.5,2C308.9,336.6,308.2,335.3,308.1,335.1z M309.1,336.5C309.3,336.4,309,336.6,309.1,336.5z
	 M418.6,339.8c-1.7-1.3-3.4-2.7-5.1-4.1c-3.3-2.7-6.3-5.7-9.2-8.8c-6.1-6.5-11.5-13.6-16.2-21.2c-4.8-7.8-8.6-16-11.8-24.6
	c-3.1-8.3-5.5-16.9-7.8-25.5c-1.4-5.4-2.8-10.7-4.2-16.1c-1.5-5.9-3-11.7-4.6-17.6c-1.1-4.4-2.3-8.8-3.4-13.2
	c-1.2-4.5-2.4-9.1-3.9-13.5c-1.5-4.3-3.3-8.5-5.7-12.4c-2.3-4-5.1-7.7-7.9-11.3c-5.7-7.3-11.6-14.5-17.4-21.8
	c-4.9-6.2-9.9-12.3-14.6-18.6c0-0.1-0.4-0.5-0.8-1v44.9c0.1-0.3,0.1-0.5,0.2-0.6c0.2-0.7,0.5-1.5,0.9-2.2c1.2-2.5,3.1-4.7,5.5-6.2
	c1.6-1,3.4-1.5,5.2-1.8c0.9-0.1,1.8-0.2,2.7-0.2c0.2,0,1.8-0.1,1.8,0.2c0,0,0-0.1,0,0c0,0.1,0,0,0,0c0,0.3-1.3,0.4-1.4,0.5
	c-0.8,0.1-1.6,0.3-2.4,0.4c-1.6,0.3-3.2,0.7-4.7,1.5c-2.5,1.3-4.4,3.4-5.9,5.8c-0.4,0.7-0.8,1.3-1.1,2c-0.1,0.1-0.6,1.4-0.8,1.3
	c0,0,0,0,0,0v34.4c0.2-0.2,0.6-0.5,0.8-0.6c0.8-0.6,1.6-1.2,2.4-1.9c2.9-2.3,5.5-4.9,7.7-7.8c1.5-1.9,2.8-4,4-6.1
	c0.6-1.1,1.1-2.2,1.7-3.2c0.1-0.2,0.9-2.2,1.2-2.1c0.3,0.1-0.3,1.7-0.4,1.8c-0.3,1.1-0.8,2.1-1.3,3.1c-0.9,2-2.1,3.9-3.4,5.7
	c-2.1,2.9-4.6,5.7-7.4,8c-1.6,1.2-3.2,2.5-5,3.3c-0.1,0-0.3,0.2-0.5,0.2v3.4c3.9,2.9,7.9,5.7,11.3,9.2c1.7,1.7,3.3,3.5,4.6,5.5
	c0.7,1,1.2,2.1,1.8,3.2c0.1,0.1,0.9,2.1,0.8,2.2c-0.2,0.1-1.1-2-1.3-2.2c-0.7-1.1-1.3-2.2-2.1-3.2c-1.5-2-3.2-3.8-5-5.4
	c-3.9-3.6-8.4-6.5-12.7-9.6c-4.5-3.2-8.9-6.7-13-10.5c-4.1-3.8-8-7.8-11.7-12c-1.8-2.1-3.5-4.3-5.7-6c-2.1-1.7-4.7-2.7-7.2-3.8
	c-4.3-1.9-8.6-3.8-12.8-5.6c0.1,0.2,0.1,0.3,0.1,0.5c0,1.3-1.3,1.9-2.4,2.3c-2.4,1-4.4,2.7-6.3,4.4c-1.5,1.3-3,2.7-4.9,3.4
	c-2.5,0.8-5.4,0.1-7.8-1c-1.9-0.9-3.6-2.4-4.5-4.3c0.4,4.8,2.8,9.3,5.9,13c2.1,2.6,4.6,4.8,7.3,6.7c3.8,2.7,7.8,5,11.9,7.3
	c0.7,0.4,1.4,0.8,2.1,1.2c0-0.1,0-0.1-0.1-0.2c-0.1-0.5-0.2-1-0.3-1.5c0-0.4-0.1-2.7,0.6-2.6c0.4,0.1,0.4,0.9,0.4,1.2
	c0,0.4,0.1,0.9,0.1,1.3c0,0.3,0.3,1.7,0.1,2.3c3.5,2.1,7.1,4.3,10,7.2c2,1.9,3.5,4.1,4.6,6.6c1.1,2.5,1.8,5.3,2.2,8
	c0.5,2.8,0.7,5.6,1.1,8.5c0.3,2.8,0.8,5.7,1.3,8.5c1,4.9,2.5,9.8,4.5,14.4c2.2,5.2,5,10.2,8,15c3,4.9,6.3,9.6,9.6,14.3
	c3.3,4.7,6.5,9.4,9.9,14.1c3.2,4.4,6.5,8.7,10.1,12.7c3.3,3.7,7,7,10.9,10c0.6,0.4,1.1,0.8,1.7,1.3c0.1,0.1,0.3,0.2,0.4,0.3
	c0,0.1,0.1,0.1,0,0.1c-0.2,0-0.7-0.4-0.9-0.5c-0.5-0.3-1-0.6-1.5-0.9c-1.1-0.7-2.1-1.4-3.1-2.2c-4.1-3.1-7.7-6.7-11-10.5
	c-3.6-4.1-7-8.5-10.2-12.9c-3.4-4.6-6.7-9.2-9.9-13.8c-3.2-4.6-6.4-9.3-9.3-14.1c-1.8-3-3.4-6-4.9-9.1l-25.7,0
	c0.4,0.3,0.7,0.6,0.8,0.7c2,1.8,3.6,3.9,5.3,6c1.1,1.4,2.2,2.7,3.2,4.2c0.5,0.6,0.9,1.2,1.3,1.9c0-0.4,0.1-0.8,0.2-1.1
	c0.3-1,0.8-1.9,1.3-2.8c0.4-0.7,0.9-1.4,1.4-2.1c0.2-0.3,1.6-2.5,2-2.2c-0.1-0.1-0.3-0.2,0,0c0.1,0.1,0.1,0,0,0
	c0.4,0.3-0.7,2.1-0.9,2.3c-0.5,0.8-1,1.6-1.5,2.4c-0.5,0.8-0.9,1.6-1.3,2.4c-0.2,0.5-0.4,1-0.5,1.6c0,0.2,0,0.9-0.3,0.9c0,0,0,0,0,0
	c0,0,0,0,0,0c0.1,0.4,0.2,0.8,0.3,1.3c0.3,1.6,0.7,3.2,1.2,4.7c1.3,3.8,3.3,7.4,5.4,10.8c2.2,3.5,4.7,6.9,7,10.5
	c2.3,3.5,4.2,7.2,6.1,10.9c3,5.9,5.9,12.1,10.3,17.2c2.7,3.1,5.7,5.7,9,8c3.4,2.4,7.1,4.5,10.7,6.6c3.5,2.1,7.1,4.1,10.6,6.3
	c2.9,1.7,5.8,3.4,8.6,5.3c0.1,0.1,1.4,0.9,1.3,1.1c-0.1,0.2-1.6-0.5-1.7-0.6c-1.4-0.7-2.8-1.4-4.2-2.1c-3.4-1.8-6.7-3.6-10-5.5
	c-3.7-2.1-7.4-4.1-11.1-6.3c-3.6-2.1-7.1-4.4-10.2-7.1c-3-2.6-5.5-5.5-7.7-8.8c-1.6-2.4-3-4.8-4.3-7.4c-1.9-3.6-3.6-7.2-5.5-10.8
	c-2-3.7-4.2-7.3-6.5-10.8c-4.2-6.4-8.7-13.3-9.5-21.1c0-0.4-0.1-0.8,0-1.2c0-0.2-0.1-0.7,0-1.1c-0.2-0.1-0.4-0.2-0.6-0.3
	c-0.6-0.4-1.1-0.9-1.5-1.4c-1.2-1.2-2.2-2.4-3.3-3.7c-1.7-2-3.3-4.1-4.9-6.2c-0.4-0.6-0.9-1.2-1.3-1.9c-0.1-0.2-0.3-0.5-0.4-0.8
	h-46.4c-0.3,0-0.5,0-0.8,0s-0.5,0-0.8,0c-3.9,0-7.7-1.9-10-5c-1.6-2.1-2.5-4.7-2.5-7.5v-0.8v-11.8c0,0-0.1,0-0.1,0
	c-0.3-0.1-0.6-0.3-0.9-0.4c-1.3-0.7-2.5-1.5-3.6-2.4c-2.5-1.9-4.7-4.3-6.2-7c-1.1-1.9-1.9-3.9-2.3-6c-0.6-2.9-0.6-6.5,1.6-8.7
	c1.2-1.1,2.8-1.6,4.3-1.8c1.6-0.2,3.2-0.4,4.9-0.4c0.7,0,1.4,0.1,2.1,0.3c0,0,0.1,0,0.2,0.1v-11.6c-0.3,0-0.6-0.1-0.8-0.2
	c-0.9-0.2-1.8-0.5-2.6-0.7c-1.9-0.5-3.8-1.1-5.7-1.7c-1.9-0.6-4-1.2-5.7-2.2c-1.6-1-2.9-2.4-3.8-4c-1.4-2.5-2.1-5.8-1.5-8.6
	c0.9-3.9,4.8-5.7,8.4-6.2c2.1-0.3,4.2-0.4,6.3-0.4c1.7,0,3.5,0,5.2,0.2c0,0,0.1,0,0.2,0v-17.3c-0.3-0.1-0.7-0.2-0.8-0.3
	c-0.8-0.3-1.6-0.6-2.5-0.9c-1.8-0.7-3.5-1.5-5.2-2.4c-1.9-0.9-3.7-1.9-5.6-2.9c-1.7-1-3.4-2.2-4.4-4c-0.8-1.6-1.2-3.4-1.3-5.2
	c-0.1-1.3-0.2-2.5,0.1-3.8c0.7-3.9,4.1-6.3,7.8-7c2-0.4,4.2-0.4,6.3-0.3c1.8,0.1,3.6,0.4,5.3,1c0,0,0.2,0.1,0.4,0.1V53.7v-0.3
	c0-0.2,0-0.4,0-0.6c0-4,1.9-7.7,5.1-10c2.1-1.5,4.7-2.4,7.6-2.4h88.8c1.3,0,2.7,0.1,4.1,0.4c4.6,1.3,8.2,5.3,9,10
	c0.1,0.9,0.1,1.7,0.1,2.5v76.1c0.5,0.6,1.2,1.3,1.3,1.4c2.4,2.7,4.7,5.5,7.1,8.3c5.7,6.8,11.3,13.6,16.9,20.5c3,3.6,6,7.2,8.9,10.9
	c2.9,3.6,5.6,7.2,8,11.2c4.8,8,7.4,16.9,9.8,25.8c2.2,8.3,4.3,16.5,6.4,24.8c1,3.7,1.9,7.4,2.9,11.1c2,7.8,4,15.7,6.3,23.5
	c2.6,8.7,5.5,17.3,9.4,25.6c3.8,8.2,8.5,16,13.9,23.3c5.2,7,11.2,13.6,17.7,19.5c1.5,1.4,3.1,2.7,4.6,4.1c0.3,0.3,3.8,3.1,3.7,3.3
	C422.7,342.9,418.9,340.1,418.6,339.8z M264.1,280.7C264.1,280.7,264.1,280.7,264.1,280.7C264.1,280.7,264.1,280.7,264.1,280.7
	C264.1,280.7,264.1,280.7,264.1,280.7z M190.3,215.2c-0.8,0-1.5,0.1-2.2,0.2c-1.6,0.2-3.2,0.4-4.7,0.8c-1.5,0.4-2.8,1.2-3.4,2.7
	c-1.1,2.4-0.6,5.4,0.1,7.8c1.7,5.8,6.1,9.9,10.7,13.5c0.1,0,0.3,0.3,0.6,0.5v-25.5C191,215.3,190.6,215.2,190.3,215.2z M188.6,180
	c-2,0.1-4,0.3-5.9,0.5c-3.5,0.3-8,1-9.7,4.6c-0.6,1.4-0.7,2.9-0.5,4.4c0.2,1.7,0.8,3.4,1.8,4.9c1,1.6,2.5,2.8,4.2,3.6
	c1.9,0.9,3.9,1.5,5.9,2.2c1.9,0.7,3.7,1.3,5.5,2c0.5,0.2,1,0.4,1.5,0.6v-23.1C190.4,180,188.7,180,188.6,180z M190.8,136.9
	c-0.8-0.1-1.6-0.2-2.5-0.3c-2-0.2-4-0.2-6.1,0c-3.6,0.3-7.9,1.6-9.1,5.5c-0.4,1.3-0.4,2.7-0.2,4c0.2,1.8,0.5,3.7,1.5,5.3
	c1,1.6,2.8,2.6,4.5,3.5c1.8,1,3.7,2.1,5.6,3.1c1.7,0.9,3.4,1.8,5.1,2.7c0.6,0.3,1.2,0.6,1.8,1c0,0,0,0,0,0v-24.8
	C191.1,136.9,190.8,136.9,190.8,136.9z M228.6,181.8c1.6,2,4.1,3.1,6.6,3.6c1.2,0.2,2.5,0.3,3.7,0c0.8-0.2,1.6-0.7,2.3-1.2
	c1.9-1.4,3.5-3.1,5.4-4.4c1.1-0.8,2.3-1.5,3.6-1.9c0.9-0.3,2.7-0.8,2.1-2.2c0-0.1-0.1-0.2-0.2-0.3c-0.7-0.3-1.4-0.6-2.2-0.9
	c-2.6-1.1-5.1-2.3-7.7-3.3c-2.5-1-5.3-2-8.1-1.8c-5,0.5-7,5.5-7.1,10C227.5,180.2,227.9,181,228.6,181.8z M271.9,244.1
	c-0.9-5.5-1.1-11.1-2.5-16.5c-0.7-2.5-1.8-4.9-3.3-7c-1.6-2.1-3.6-3.8-5.7-5.3c-4.4-3.2-9.2-5.7-13.9-8.5c-3-1.7-5.8-3.6-8.6-5.7
	c-3.5-2.6-6.6-5.9-8.9-9.6c-2.8-4.4-4.5-9.9-3.5-15.1c0.5-2.6,1.6-5.1,3.5-6.8c2-1.8,4.6-2.4,7.2-2.2c2.7,0.2,5.3,1.2,7.8,2.3
	c2.6,1.1,5.2,2.3,7.8,3.4c5.3,2.3,10.5,4.7,15.8,7c2.5,1.1,5,2.3,7.1,4.1c2.1,1.8,3.7,3.9,5.5,6c3.7,4.3,7.6,8.4,11.8,12.3
	c3,2.8,6.2,5.5,9.5,8V60.2c0,0,0,0,0,0H195.6v184.6c0,0,0,0,0,0c0.1,0,0.2,0,0.3,0H272C271.9,244.5,271.9,244.3,271.9,244.1z
	 M304.9,53.4c0-0.8,0-1.6-0.1-2.3c-0.7-4.3-3.9-7.9-8.1-9.1c-1.2-0.3-2.4-0.4-3.8-0.4h-88.8c-2.6,0-4.9,0.7-6.9,2.1
	c-2.9,2.1-4.6,5.5-4.6,9.1c0,0.2,0,0.4,0,0.6v199.3v0.4v0.8c0,2.5,0.8,4.9,2.2,6.8c2.1,2.8,5.5,4.5,9,4.5c0.5,0,1.1,0,1.6,0h72.8
	c-0.7-1.6-1.4-3.1-2-4.7c-1.8-4.7-3.1-9.6-3.9-14.6h-76.3c-0.1,0-0.1,0-0.2,0c-0.1,0-0.2,0-0.3,0c-0.1,0-0.3,0-0.4,0
	c-0.3-0.1-0.7-0.2-0.6-0.8c0,0,0-0.1,0-0.1V60c0,0,0,0,0-0.1c0-0.2,0-0.4,0.1-0.6c0.1-0.3,0.5-0.5,0.9-0.5c0,0,0.1,0,0.1,0l106.3,0
	c0.3,0,0.5,0,0.8,0.2c0.3,0.2,0.3,0.6,0.2,1c0,0,0,0.1,0,0.1v151.3c0.7,0.6,1.5,1.1,2.2,1.7V53.4z M261.4,52.4h-24.9
	c-0.1,0-0.2,0-0.3,0c-0.1,0-0.2,0-0.3,0c-0.2,0-0.4,0-0.6,0c-1.2-0.2-2.1-1.1-2.4-2.3c-0.3-1.2,0.2-2.4,1.2-3.1
	c0.8-0.5,1.6-0.5,2.2-0.5l24.3,0c0.3,0,0.5,0,0.8,0c1,0,1.9,0.5,2.5,1.4c0.5,0.8,0.6,1.8,0.3,2.7C263.7,51.7,262.6,52.4,261.4,52.4z
	 M262.8,48.5c-0.3-0.5-0.9-0.8-1.5-0.8c-0.3,0-0.5,0-0.8,0l-0.4,0h-23.9c-0.6,0-1.1,0-1.5,0.3c-0.7,0.5-0.8,1.3-0.7,1.9
	c0.1,0.6,0.6,1.2,1.4,1.4c0.2,0,0.5,0,0.7,0c0.1,0,0.2,0,0.3,0h24.9c0.7,0,1.4-0.4,1.6-1.1C263.2,49.6,263.2,49,262.8,48.5z
	 M240.3,249.1c0.9-0.3,2-0.2,2.9-0.2c0.3,0,0.6,0,0.8,0l11.4,0c0.4,0,0.7,0,1.1,0.1c1.6,0.3,3,1.5,3.4,3.2c0.2,0.7,0.2,1.5,0.1,2.2
	c0,0.2,0,0.4,0,0.6c0,1.5-0.7,2.9-1.9,3.7c-0.7,0.5-1.5,0.7-2.3,0.7h-14c-0.7,0-1.4-0.1-2.2-0.4c-1.4-0.7-2.3-2.2-2.4-3.8
	c0-0.2,0-0.4,0-0.5c0-0.6,0-1.3,0-1.9C237.5,251,238.7,249.6,240.3,249.1z M238.5,254.6c0,0.2,0,0.4,0,0.5c0,1.2,0.7,2.2,1.7,2.7
	c0.5,0.3,1.1,0.3,1.7,0.3h14c0.6,0,1.2-0.2,1.7-0.5c0.9-0.6,1.3-1.5,1.3-2.7c0-0.2,0-0.5,0-0.7c0-0.7,0-1.3-0.1-1.9
	c-0.3-1.2-1.3-2.1-2.4-2.3c-0.3,0-0.6,0-0.9,0l-0.2,0H244c-0.3,0-0.6,0-0.9,0c-0.3,0-0.6,0-0.9,0c-0.6,0-1.1,0-1.5,0.2
	c-1.1,0.4-2,1.4-2.1,2.6C238.5,253.4,238.5,254,238.5,254.6z M209.8,115.8h12.9v1.8h-12.9c-1.5,0-2.8,1.2-2.8,2.8v3.7
	c0,1.5,1.2,2.8,2.8,2.8h11.1v1.8h-8.1l6.2,27.8c0.5,2.1,2.3,3.6,4.5,3.6h50.2c2.2,0,4-1.5,4.5-3.6l6.2-27.8h-8.1v-1.8h11.1
	c1.5,0,2.8-1.2,2.8-2.8v-3.7c0-1.5-1.2-2.8-2.8-2.8h-12.9v-1.8h12.9c2.5,0,4.6,2.1,4.6,4.6v3.7c0,2.5-2.1,4.6-4.6,4.6h-1.1
	l-6.3,28.2c-0.7,3-3.3,5.1-6.3,5.1h-50.2c-3.1,0-5.6-2.1-6.3-5.1l-6.3-28.2h-1.1c-2.5,0-4.6-2.1-4.6-4.6v-3.7
	C205.2,117.9,207.3,115.8,209.8,115.8z M266.1,151.8v-18.5h1.8v18.5H266.1z M258.8,95l1.7-0.7l11.1,27.7l-1.7,0.7L258.8,95z
	 M256.9,151.8v-18.5h1.8v18.5H256.9z M247.7,151.8v-18.5h1.8v18.5H247.7z M238.4,151.8v-18.5h1.8v18.5H238.4z M233.8,115.8h29.5v1.8
	h-29.5V115.8z M229.2,151.8v-18.5h1.8v18.5H229.2z M225.6,122l11.1-27.7l1.7,0.7l-11.1,27.7L225.6,122z M324,188.5
	C323.8,188.4,324.1,188.5,324,188.5z M254.7,204.9C254.4,204.8,255,204.9,254.7,204.9z M153.4,175.9c-16.2-16.1-16.2-42.4,0-58.6
	l0.8,0.9c-15.7,15.7-15.7,41.2,0,56.9L153.4,175.9z M142,187.3l-0.8,0.8c-11.1-11.1-17.2-25.9-17.2-41.6s6.1-30.5,17.2-41.6l0.8,0.8
	C119.5,128.3,119.5,164.9,142,187.3z M129.2,200l-0.8,0.8c-14.5-14.5-22.5-33.8-22.5-54.3s8-39.8,22.5-54.3l0.8,0.8
	C99.8,122.6,99.8,170.6,129.2,200z M331.9,345.6c0,0.1-0.4,0.6-0.5,0.6c-0.1,0,0-0.4,0.1-0.5c0.3-0.7,0.7-1.4,1.2-1.9
	c1.3-1.4,2.9-2.4,4.5-3.3c5.3-3.1,11-5.4,16-9c2.9-2.1,5.8-4.5,8.5-6.9c2.7-2.4,5.1-4.9,7.5-7.5c0.1-0.1,0.5-0.7,0.7-0.6
	c0.3,0.2-1.6,2.5-1.7,2.7c-1.1,1.4-2.3,2.7-3.5,4c-2.6,2.7-5.5,5.1-8.5,7.5c-1.7,1.3-3.4,2.6-5.3,3.7c-3.2,2-6.6,3.6-10,5.3
	c-1.8,0.9-3.5,1.8-5.2,2.8C334.3,343.2,332.9,344.2,331.9,345.6z M369.8,316.4C369.7,316.3,369.9,316.5,369.8,316.4z"/>
</svg>
