<svg 
 xmlns="http://www.w3.org/2000/svg"
 xmlns:xlink="http://www.w3.org/1999/xlink"
 width="343px" height="149px">
<path fill-rule="evenodd"  fill="rgb(24, 56, 224)"
 d="M341.817,148.999 C341.164,148.999 340.636,148.470 340.636,147.817 L340.636,125.725 C340.636,119.287 337.538,113.176 332.348,109.378 L316.808,98.012 L327.488,118.638 C327.774,119.192 327.581,119.876 327.045,120.197 L314.820,127.543 L317.396,136.869 C317.544,137.403 317.302,137.969 316.815,138.230 L303.819,145.172 C303.642,145.266 303.453,145.310 303.263,145.310 C302.841,145.310 302.433,145.084 302.221,144.684 C301.914,144.107 302.133,143.391 302.708,143.083 L314.868,136.587 L312.306,127.307 C312.163,126.795 312.379,126.249 312.836,125.977 L324.879,118.741 L313.412,96.597 L297.843,124.958 C297.428,125.711 296.187,125.711 295.772,124.958 L280.203,96.597 L268.735,118.741 L280.778,125.977 C281.235,126.249 281.452,126.795 281.309,127.307 L278.746,136.587 L290.907,143.083 C291.481,143.391 291.700,144.107 291.393,144.684 C291.181,145.084 290.773,145.310 290.351,145.310 C290.162,145.310 289.972,145.266 289.795,145.172 L276.799,138.230 C276.312,137.969 276.070,137.403 276.218,136.869 L278.794,127.543 L266.569,120.197 C266.034,119.876 265.840,119.192 266.126,118.638 L276.806,98.012 L261.268,109.378 C256.078,113.176 252.978,119.287 252.978,125.725 L252.978,147.817 C252.978,148.470 252.450,148.999 251.797,148.999 C251.144,148.999 250.616,148.470 250.616,147.817 L250.616,125.725 C250.616,118.533 254.078,111.710 259.875,107.470 L279.475,93.132 C279.493,93.118 279.513,93.111 279.532,93.099 C279.572,93.073 279.612,93.048 279.655,93.027 C279.686,93.012 279.717,92.999 279.749,92.987 C279.792,92.971 279.835,92.957 279.879,92.945 C279.912,92.937 279.945,92.929 279.978,92.924 C280.024,92.916 280.070,92.912 280.117,92.910 C280.150,92.908 280.183,92.906 280.217,92.907 C280.263,92.909 280.309,92.915 280.355,92.923 C280.379,92.926 280.404,92.925 280.428,92.930 C280.438,92.933 280.448,92.938 280.458,92.941 C280.504,92.952 280.549,92.969 280.594,92.987 C280.625,92.999 280.656,93.008 280.686,93.023 C280.696,93.027 280.706,93.029 280.716,93.034 C280.727,93.040 280.733,93.051 280.744,93.057 C280.869,93.127 280.982,93.214 281.074,93.324 C281.081,93.333 281.086,93.342 281.093,93.351 C281.134,93.403 281.175,93.456 281.207,93.515 L296.807,121.932 L312.407,93.515 C312.440,93.456 312.480,93.402 312.522,93.350 C312.529,93.342 312.533,93.332 312.540,93.324 C312.632,93.215 312.745,93.127 312.870,93.058 C312.881,93.051 312.887,93.040 312.898,93.034 C312.908,93.029 312.919,93.027 312.929,93.022 C312.958,93.008 312.989,92.999 313.019,92.987 C313.065,92.970 313.110,92.952 313.156,92.941 C313.167,92.938 313.176,92.933 313.187,92.930 C313.212,92.925 313.237,92.926 313.262,92.922 C313.306,92.915 313.349,92.909 313.392,92.907 C313.432,92.906 313.471,92.907 313.511,92.910 C313.550,92.912 313.588,92.916 313.626,92.922 C313.667,92.928 313.707,92.937 313.747,92.948 C313.784,92.958 313.820,92.970 313.855,92.983 C313.893,92.997 313.930,93.012 313.966,93.030 C314.005,93.049 314.042,93.072 314.079,93.096 C314.098,93.109 314.120,93.117 314.139,93.132 L333.742,107.470 C339.538,111.710 342.998,118.533 342.998,125.725 L342.998,147.817 C342.998,148.470 342.470,148.999 341.817,148.999 ZM324.268,46.661 C324.921,46.661 325.449,47.190 325.449,47.844 C325.449,67.357 312.601,83.235 296.807,83.235 C281.013,83.235 268.165,67.357 268.165,47.844 C268.165,47.190 268.693,46.661 269.346,46.661 L324.268,46.661 ZM296.807,80.869 C310.984,80.869 322.573,66.692 323.071,49.026 L270.543,49.026 C271.041,66.692 282.630,80.869 296.807,80.869 ZM339.377,95.268 C338.724,95.268 338.196,94.739 338.196,94.086 L338.196,44.237 C338.196,21.381 319.629,2.787 296.807,2.787 C273.985,2.787 255.419,21.381 255.419,44.237 L255.419,94.086 C255.419,94.739 254.890,95.268 254.238,95.268 C253.585,95.268 253.057,94.739 253.057,94.086 L253.057,44.237 C253.057,20.078 272.684,0.421 296.807,0.421 C320.930,0.421 340.558,20.078 340.558,44.237 L340.558,94.086 C340.558,94.739 340.030,95.268 339.377,95.268 ZM233.460,75.530 C232.838,78.891 229.907,81.330 226.492,81.330 C226.062,81.330 225.628,81.290 225.203,81.211 L221.832,80.585 C221.662,80.922 221.488,81.259 221.310,81.595 C219.706,84.607 217.789,87.445 215.603,90.047 L217.731,93.227 C219.875,96.431 219.058,100.844 215.910,103.064 L205.469,110.426 C204.295,111.253 202.921,111.691 201.495,111.691 C199.189,111.691 197.045,110.543 195.759,108.621 L193.328,104.987 C189.990,106.058 186.548,106.766 183.061,107.097 L182.193,111.785 C181.580,115.088 178.700,117.486 175.344,117.486 C174.921,117.486 174.495,117.446 174.077,117.369 L161.667,115.063 C157.893,114.361 155.392,110.715 156.092,106.935 L156.961,102.244 C156.530,102.030 156.109,101.814 155.703,101.596 C153.029,100.169 150.487,98.489 148.127,96.593 L144.563,99.107 C143.389,99.935 142.014,100.372 140.587,100.372 C138.282,100.372 136.138,99.225 134.852,97.304 L127.743,86.680 C125.600,83.477 126.418,79.064 129.567,76.844 L132.699,74.635 C131.460,71.049 130.644,67.338 130.265,63.569 L126.896,62.943 C125.042,62.599 123.429,61.547 122.355,59.981 C121.282,58.416 120.880,56.531 121.224,54.674 L123.580,41.956 C124.203,38.595 127.133,36.156 130.548,36.156 C130.979,36.156 131.412,36.196 131.837,36.275 L135.208,36.902 C135.378,36.564 135.552,36.227 135.731,35.892 C137.335,32.879 139.251,30.041 141.437,27.440 L139.309,24.260 C137.165,21.056 137.982,16.643 141.130,14.423 L151.572,7.060 C152.745,6.233 154.119,5.796 155.545,5.796 C157.851,5.796 159.995,6.944 161.281,8.866 L163.713,12.500 C167.052,11.428 170.494,10.720 173.979,10.389 L174.848,5.702 C175.460,2.398 178.340,0.000 181.697,0.001 C181.697,0.001 181.697,0.001 181.697,0.001 C182.120,0.001 182.546,0.040 182.964,0.117 L195.373,2.424 C199.147,3.125 201.648,6.771 200.948,10.552 L200.079,15.243 C200.509,15.456 200.930,15.672 201.337,15.890 C204.011,17.318 206.554,18.998 208.912,20.894 L212.478,18.380 C213.652,17.552 215.027,17.114 216.454,17.114 C218.758,17.114 220.902,18.261 222.188,20.183 L229.297,30.807 C231.440,34.010 230.622,38.423 227.474,40.643 L224.341,42.852 C225.580,46.437 226.396,50.147 226.775,53.917 L230.144,54.543 C231.998,54.888 233.611,55.940 234.685,57.505 C235.759,59.070 236.161,60.955 235.817,62.812 L233.460,75.530 ZM229.821,56.288 L225.126,55.415 C224.799,50.878 223.814,46.418 222.215,42.181 L226.454,39.192 C228.816,37.526 229.433,34.198 227.825,31.794 L220.716,21.171 C219.723,19.686 218.103,18.888 216.453,18.888 C215.433,18.888 214.401,19.194 213.498,19.830 L208.827,23.124 C206.313,20.982 203.535,19.074 200.504,17.455 C199.706,17.029 198.900,16.631 198.089,16.256 L199.206,10.228 C199.727,7.416 197.857,4.690 195.050,4.168 L182.640,1.862 C182.324,1.803 182.008,1.775 181.697,1.775 C179.247,1.775 177.052,3.531 176.590,6.025 L175.474,12.048 C171.208,12.331 167.008,13.199 162.995,14.613 L159.810,9.854 C158.816,8.368 157.196,7.570 155.545,7.570 C154.525,7.570 153.494,7.875 152.591,8.511 L142.150,15.874 C139.788,17.539 139.172,20.868 140.781,23.272 L143.662,27.577 C141.234,30.305 139.087,33.360 137.294,36.727 C136.913,37.443 136.552,38.166 136.211,38.892 L131.514,38.020 C131.190,37.959 130.867,37.930 130.548,37.930 C128.041,37.930 125.795,39.727 125.322,42.280 L122.966,54.998 C122.432,57.874 124.347,60.665 127.219,61.199 L131.914,62.071 C132.241,66.609 133.227,71.068 134.825,75.306 L130.587,78.294 C128.224,79.960 127.607,83.289 129.215,85.692 L136.324,96.316 C137.317,97.801 138.937,98.598 140.587,98.598 C141.608,98.598 142.640,98.293 143.543,97.656 L148.213,94.363 C150.727,96.504 153.505,98.412 156.536,100.031 C157.334,100.457 158.140,100.855 158.951,101.231 L157.834,107.259 C157.313,110.070 159.184,112.797 161.991,113.319 L174.400,115.624 C174.717,115.683 175.032,115.712 175.344,115.712 C177.793,115.712 179.988,113.956 180.451,111.461 L181.567,105.438 C185.833,105.154 190.033,104.288 194.046,102.874 L197.230,107.633 C198.224,109.118 199.845,109.916 201.495,109.916 C202.515,109.916 203.546,109.611 204.449,108.975 L214.890,101.613 C217.252,99.947 217.868,96.618 216.259,94.214 L213.379,89.910 C215.806,87.182 217.954,84.127 219.746,80.760 C220.128,80.043 220.489,79.321 220.830,78.594 L225.526,79.467 C225.850,79.527 226.173,79.556 226.492,79.556 C228.999,79.556 231.246,77.759 231.718,75.207 L234.075,62.489 C234.608,59.612 232.693,56.821 229.821,56.288 ZM226.488,75.357 C226.423,75.357 226.357,75.351 226.291,75.339 L218.410,73.874 L217.035,76.810 C216.722,77.477 216.393,78.135 216.047,78.784 C214.451,81.782 212.506,84.580 210.249,87.116 L208.088,89.545 L212.777,96.552 C213.118,97.061 212.977,97.827 212.477,98.180 L202.035,105.542 C201.867,105.661 201.678,105.718 201.491,105.718 C201.190,105.718 200.897,105.570 200.713,105.295 L195.719,97.833 L192.654,98.913 C188.992,100.204 185.163,100.992 181.289,101.249 L178.039,101.465 L176.329,110.695 C176.241,111.170 175.809,111.512 175.340,111.512 C175.282,111.512 175.223,111.507 175.165,111.496 L162.756,109.190 C162.224,109.091 161.857,108.557 161.956,108.025 L163.667,98.789 L160.710,97.420 C159.966,97.076 159.232,96.713 158.509,96.327 C155.805,94.883 153.263,93.153 150.929,91.164 L148.456,89.057 L141.129,94.223 C140.961,94.342 140.770,94.399 140.583,94.399 C140.282,94.399 139.990,94.253 139.806,93.979 L132.697,83.355 C132.357,82.846 132.500,82.080 133.000,81.727 L139.895,76.865 L138.747,73.821 C137.288,69.956 136.392,65.890 136.095,61.769 L135.862,58.534 L127.984,57.071 C127.387,56.960 126.977,56.361 127.088,55.763 L129.444,43.046 C129.542,42.514 130.026,42.130 130.552,42.130 C130.617,42.130 130.683,42.135 130.749,42.148 L138.629,43.612 L140.005,40.677 C140.318,40.011 140.647,39.352 140.993,38.702 C142.589,35.705 144.534,32.907 146.791,30.371 L148.952,27.942 L144.263,20.935 C143.923,20.425 144.063,19.660 144.564,19.307 L155.005,11.944 C155.173,11.826 155.363,11.769 155.549,11.769 C155.850,11.769 156.143,11.916 156.327,12.191 L161.321,19.654 L164.386,18.573 C168.048,17.283 171.877,16.495 175.751,16.238 L179.001,16.022 L180.712,6.791 C180.799,6.317 181.232,5.974 181.701,5.974 C181.759,5.974 181.817,5.979 181.876,5.990 L194.285,8.296 C194.817,8.395 195.183,8.929 195.084,9.462 L193.373,18.698 L196.330,20.067 C197.074,20.411 197.809,20.774 198.531,21.160 C201.235,22.604 203.777,24.334 206.111,26.322 L208.584,28.429 L215.911,23.263 C216.080,23.144 216.270,23.087 216.458,23.087 C216.758,23.087 217.050,23.233 217.234,23.508 L224.343,34.131 C224.684,34.641 224.541,35.406 224.040,35.759 L217.144,40.621 L218.293,43.665 C219.752,47.530 220.648,51.597 220.945,55.718 L221.178,58.952 L229.056,60.416 C229.653,60.527 230.064,61.125 229.953,61.723 L227.597,74.441 C227.498,74.973 227.014,75.357 226.488,75.357 ZM220.855,60.696 L219.510,60.446 L219.412,59.080 L219.178,55.846 C218.893,51.893 218.038,48.006 216.636,44.293 L215.487,41.249 L215.002,39.962 L216.125,39.171 L222.550,34.640 L216.236,25.204 L209.604,29.880 L208.482,30.671 L207.437,29.781 L204.963,27.673 C202.734,25.774 200.289,24.110 197.697,22.726 C197.005,22.355 196.300,22.007 195.587,21.677 L192.630,20.308 L191.380,19.729 L191.631,18.374 L193.202,9.899 L182.312,7.876 L180.743,16.346 L180.492,17.701 L179.118,17.792 L175.868,18.008 C172.155,18.254 168.490,19.008 164.974,20.247 L161.909,21.327 L160.614,21.784 L159.850,20.641 L155.329,13.886 L146.055,20.425 L150.424,26.954 L151.188,28.096 L150.275,29.122 L148.113,31.551 C145.958,33.973 144.088,36.660 142.556,39.537 C142.224,40.160 141.909,40.793 141.609,41.431 L140.233,44.366 L139.651,45.607 L138.306,45.357 L131.066,44.011 L128.948,55.446 L136.185,56.790 L137.530,57.040 L137.629,58.407 L137.862,61.641 C138.147,65.593 139.002,69.480 140.404,73.194 L141.553,76.238 L142.038,77.524 L140.916,78.315 L134.490,82.847 L140.804,92.283 L147.436,87.606 L148.558,86.815 L149.603,87.706 L152.077,89.813 C154.306,91.712 156.750,93.377 159.342,94.761 C160.036,95.131 160.740,95.479 161.453,95.810 L164.410,97.179 L165.660,97.757 L165.409,99.113 L163.839,107.587 L174.728,109.611 L176.298,101.141 L176.549,99.786 L177.922,99.695 L181.172,99.478 C184.885,99.232 188.550,98.479 192.066,97.240 L195.131,96.159 L196.426,95.703 L197.191,96.845 L201.712,103.601 L210.986,97.061 L206.616,90.532 L205.852,89.390 L206.765,88.364 L208.927,85.935 C211.082,83.514 212.951,80.827 214.484,77.949 C214.816,77.326 215.132,76.695 215.431,76.057 L216.807,73.120 L217.388,71.880 L218.734,72.130 L225.974,73.475 L228.092,62.041 L220.855,60.696 ZM178.505,79.841 C173.946,79.841 169.600,78.395 165.934,75.660 C156.620,68.710 154.688,55.467 161.628,46.138 C165.585,40.820 171.905,37.645 178.535,37.645 C183.094,37.645 187.441,39.091 191.106,41.826 C195.618,45.193 198.551,50.118 199.364,55.694 C200.177,61.270 198.774,66.829 195.412,71.348 C191.455,76.666 185.135,79.841 178.505,79.841 ZM190.047,43.249 C186.587,40.666 182.543,39.419 178.535,39.419 C172.648,39.419 166.837,42.107 163.049,47.199 C156.683,55.756 158.448,67.862 166.993,74.238 C170.454,76.820 174.497,78.067 178.505,78.067 C184.392,78.067 190.204,75.379 193.991,70.288 C200.358,61.730 198.592,49.625 190.047,43.249 ZM178.508,74.088 C175.325,74.088 172.115,73.098 169.366,71.047 C162.581,65.984 161.179,56.371 166.235,49.576 C169.242,45.533 173.858,43.399 178.532,43.399 C181.715,43.399 184.925,44.388 187.674,46.439 C194.459,51.502 195.861,61.115 190.806,67.911 C187.798,71.953 183.183,74.088 178.508,74.088 ZM186.616,47.862 C184.258,46.103 181.463,45.173 178.532,45.173 C174.203,45.173 170.238,47.164 167.655,50.636 C165.493,53.542 164.590,57.118 165.113,60.704 C165.636,64.291 167.523,67.459 170.425,69.625 C172.783,71.384 175.578,72.314 178.508,72.314 C182.838,72.314 186.802,70.322 189.385,66.850 C193.849,60.851 192.606,52.332 186.616,47.862 ZM126.219,147.817 C126.219,148.470 125.691,148.999 125.038,148.999 C124.386,148.999 123.857,148.470 123.857,147.817 L123.857,119.485 C123.857,113.571 120.100,108.323 114.506,106.429 L86.510,96.941 C86.841,97.876 87.151,98.842 87.428,99.835 C87.541,100.242 87.431,100.679 87.135,100.981 L75.952,112.442 C75.722,112.677 75.415,112.797 75.108,112.797 C74.831,112.797 74.555,112.700 74.333,112.506 L71.689,110.199 L67.644,118.395 L74.437,146.890 C74.589,147.526 74.197,148.163 73.563,148.316 C73.470,148.339 73.378,148.348 73.288,148.348 C72.753,148.348 72.269,147.983 72.139,147.440 L65.247,118.529 C65.182,118.261 65.215,117.977 65.337,117.730 L69.847,108.592 L63.104,102.709 L56.363,108.592 L60.874,117.730 C60.996,117.977 61.028,118.261 60.964,118.529 L54.071,147.440 C53.942,147.983 53.458,148.348 52.923,148.348 C52.833,148.348 52.740,148.339 52.648,148.316 C52.014,148.163 51.622,147.526 51.774,146.890 L58.567,118.395 L54.522,110.199 L51.878,112.506 C51.412,112.918 50.699,112.892 50.258,112.442 L39.076,100.981 C38.780,100.679 38.670,100.242 38.783,99.835 C39.060,98.842 39.369,97.876 39.701,96.940 L11.705,106.429 C6.111,108.323 2.353,113.571 2.353,119.485 L2.353,147.817 C2.353,148.470 1.825,148.999 1.172,148.999 C0.519,148.999 -0.009,148.470 -0.009,147.817 L-0.009,119.485 C-0.009,112.555 4.395,106.408 10.948,104.188 L40.826,94.062 C43.025,88.902 45.623,85.118 46.411,84.025 L46.411,82.087 C39.189,77.728 36.840,69.541 36.088,64.096 C33.903,63.644 27.620,61.612 26.913,53.111 C26.624,49.653 27.351,47.282 29.076,46.067 C30.234,45.252 31.593,45.152 32.737,45.275 C31.261,41.022 31.159,37.753 31.300,32.246 C31.300,14.712 45.567,0.421 63.104,0.421 C80.642,0.421 94.911,14.712 94.911,32.276 C94.876,33.225 94.853,34.068 94.832,34.865 C94.729,38.695 94.650,41.632 93.453,45.277 C94.590,45.150 95.970,45.247 97.135,46.067 C98.860,47.282 99.586,49.653 99.298,53.113 C98.591,61.612 92.308,63.645 90.123,64.096 C89.370,69.541 87.021,77.728 79.800,82.087 L79.800,84.025 C80.587,85.118 83.185,88.902 85.385,94.062 L115.263,104.188 C121.816,106.408 126.219,112.555 126.219,119.485 L126.219,147.817 ZM41.246,99.819 L51.167,109.988 L62.213,100.350 L52.281,94.598 C49.609,93.052 47.692,90.518 46.866,87.614 C45.235,90.229 42.779,94.671 41.246,99.819 ZM88.099,58.789 C88.074,58.138 88.581,57.588 89.234,57.560 C89.998,57.530 90.436,58.045 90.461,58.697 C90.468,58.866 90.502,59.963 90.384,61.618 C92.437,61.038 96.428,59.120 96.945,52.917 C97.155,50.394 96.752,48.696 95.780,48.005 C94.636,47.194 92.690,47.779 92.037,48.070 C91.589,48.264 91.075,48.174 90.727,47.837 C90.381,47.497 90.275,46.982 90.461,46.534 C92.272,42.212 92.351,39.264 92.470,34.801 C92.493,33.997 92.517,33.144 92.549,32.232 C92.549,16.015 79.341,2.787 63.104,2.787 C46.870,2.787 33.662,16.015 33.662,32.276 C33.503,38.495 33.646,41.512 35.749,46.534 C35.936,46.982 35.830,47.497 35.484,47.837 C35.133,48.174 34.619,48.264 34.174,48.070 C33.523,47.779 31.574,47.194 30.430,48.005 C29.459,48.696 29.055,50.394 29.265,52.914 C29.786,59.169 33.778,61.064 35.827,61.628 C35.709,59.967 35.743,58.866 35.749,58.697 C35.775,58.059 36.298,57.560 36.930,57.560 C36.944,57.560 36.960,57.560 36.977,57.562 C37.627,57.588 38.134,58.138 38.111,58.789 C38.104,58.946 37.634,74.549 48.162,80.368 C48.540,80.576 48.773,80.973 48.773,81.403 L48.773,84.411 C48.773,87.758 50.570,90.877 53.462,92.551 L63.104,98.135 L72.748,92.551 C75.641,90.875 77.438,87.756 77.438,84.411 L77.438,81.403 C77.438,80.973 77.671,80.576 78.049,80.368 C88.600,74.537 88.106,58.946 88.099,58.789 ZM79.344,87.613 C78.519,90.516 76.602,93.051 73.929,94.598 L63.995,100.350 L75.044,109.988 L84.964,99.819 C83.431,94.671 80.976,90.228 79.344,87.613 ZM46.397,27.184 C46.159,26.577 46.459,25.893 47.066,25.655 C47.668,25.415 48.358,25.715 48.597,26.323 C48.916,27.136 56.728,46.245 82.335,46.245 C82.988,46.245 83.516,46.774 83.516,47.428 C83.516,48.082 82.988,48.610 82.335,48.610 C55.070,48.610 46.480,27.399 46.397,27.184 Z"/>
</svg>