<svg 
 xmlns="http://www.w3.org/2000/svg"
 xmlns:xlink="http://www.w3.org/1999/xlink"
 width="122px" height="174px">
<path fill-rule="evenodd"  fill="rgb(24, 56, 224)"
 d="M111.771,174.000 L10.229,174.000 C4.589,174.000 -0.000,169.405 -0.000,163.758 L-0.000,10.242 C-0.000,4.594 4.589,-0.000 10.229,-0.000 L76.453,-0.000 C79.185,-0.000 81.754,1.065 83.686,3.000 L119.004,38.360 C120.936,40.295 122.000,42.866 122.000,45.602 L122.000,163.758 C122.000,169.405 117.411,174.000 111.771,174.000 ZM120.050,45.602 C120.050,43.388 119.188,41.306 117.625,39.741 L82.307,4.380 C80.743,2.815 78.664,1.952 76.453,1.952 L10.229,1.952 C5.664,1.952 1.950,5.671 1.950,10.242 L1.950,163.758 C1.950,168.329 5.664,172.047 10.229,172.047 L111.771,172.047 C116.336,172.047 120.050,168.329 120.050,163.758 L120.050,45.602 ZM46.734,153.619 L20.080,153.619 L20.080,127.802 L20.080,87.447 L46.734,87.447 L74.543,87.447 L101.197,87.447 L101.197,113.265 L101.197,127.802 L101.197,153.619 L74.543,153.619 L46.734,153.619 ZM48.684,151.667 L72.593,151.667 L72.593,129.754 L48.684,129.754 L48.684,151.667 ZM22.031,151.667 L46.734,151.667 L46.734,129.754 L22.031,129.754 L22.031,151.667 ZM48.684,89.400 L48.684,111.313 L72.593,111.313 L72.593,89.400 L48.684,89.400 ZM99.247,89.400 L74.543,89.400 L74.543,111.313 L99.247,111.313 L99.247,89.400 ZM99.247,113.265 L74.543,113.265 L46.734,113.265 L46.734,89.400 L22.031,89.400 L22.031,127.802 L46.734,127.802 L74.543,127.802 L99.247,127.802 L99.247,113.265 ZM99.247,129.754 L74.543,129.754 L74.543,151.667 L99.247,151.667 L99.247,129.754 Z"/>
</svg>