<svg 
 xmlns="http://www.w3.org/2000/svg"
 xmlns:xlink="http://www.w3.org/1999/xlink"
 width="15px" height="17px">
<path fill-rule="evenodd"  fill="rgb(255, 255, 255)"
 d="M14.288,16.998 L13.873,16.998 C13.480,16.998 13.162,16.679 13.162,16.287 C13.162,13.911 11.235,11.985 8.858,11.985 L6.141,11.985 C3.765,11.985 1.838,13.911 1.838,16.287 C1.838,16.679 1.520,16.998 1.127,16.998 L0.711,16.998 C0.318,16.998 0.000,16.679 0.000,16.287 C0.000,12.896 2.750,10.148 6.141,10.148 L8.859,10.148 C12.250,10.148 15.000,12.896 15.000,16.287 C15.000,16.679 14.681,16.998 14.288,16.998 ZM7.500,8.270 C5.220,8.270 3.364,6.416 3.364,4.137 C3.364,1.857 5.220,0.003 7.500,0.003 C9.780,0.003 11.635,1.857 11.635,4.137 C11.635,6.416 9.780,8.270 7.500,8.270 ZM7.500,1.840 C6.233,1.840 5.202,2.870 5.202,4.137 C5.202,5.403 6.233,6.433 7.500,6.433 C8.767,6.433 9.797,5.403 9.797,4.137 C9.797,2.870 8.767,1.840 7.500,1.840 Z"/>
</svg>