<svg xmlns="http://www.w3.org/2000/svg" width="15" height="17"><path fill-rule="evenodd" fill="#FFF" d="M14.288 16.998h-.415a.711.711 0 0 1-.711-.711 4.303 4.303 0 0 0-4.304-4.302H6.141a4.303 4.303 0 0 0-4.303 4.302.711.711 0 0 1-.711.711H.711A.711.711 0 0 1 0 16.287a6.14 6.14 0 0 1 6.141-6.139h2.718A6.14 6.14 0 0 1 15 16.287a.712.712 0 0 1-.712.711zM7.5 8.27a4.14 4.14 0 0 1-4.136-4.133A4.14 4.14 0 0 1 7.5.003a4.139 4.139 0 0 1 4.135 4.134A4.139 4.139 0 0 1 7.5 8.27zm0-6.43a2.3 2.3 0 0 0-2.298 2.297A2.3 2.3 0 0 0 7.5 6.433a2.299 2.299 0 0 0 2.297-2.296A2.299 2.299 0 0 0 7.5 1.84z"/></svg>