<svg xmlns="http://www.w3.org/2000/svg" viewBox="0 0 522 411"><path d="M264 181.9c0-.1.1.2 0 0zm-.9.7c-.5.3-1 .5-1.5.8-1 .6-1.9 1.4-2.7 2.3-1.3 1.6-2.2 3.5-3.3 5.3-.2.3-1.2 2.5-1.6 2.3-.2-.1.1-1.1.1-1.2.2-.6.4-1.1.6-1.6.8-1.8 1.7-3.6 2.9-5.2.8-1 1.9-1.9 3.1-2.6.6-.3 1.2-.6 1.9-.7.1 0 1.2-.3 1.3 0 .2.2-.7.5-.8.6zm5.9 2.7c0-.2 0 .1 0 0zm-.7.4c-.4.1-.8.3-1.3.4-.8.3-1.5.6-2.3 1-1.2.7-2.3 1.6-3.2 2.5-.2.2-1.2 1.5-1.4 1.1-.1-.2.2-.7.2-.8.2-.4.4-.7.6-1 .8-1.1 1.9-2 3.1-2.6.8-.5 1.7-.8 2.7-1 .3-.1 2.2-.4 2.2.1.1.1-.5.2-.6.3zm6.1 3.3c-.2.6-.6 1.2-1 1.7-.8 1-1.8 2-2.8 2.8-.6.5-1.2 1-1.9 1.5-1.2.8-2.5 1.2-3.8 1.6-.6.2-1.3.4-1.9.5-.4.1-.8.2-1.2.2-.2 0-.2-.1-.1-.3.3-.3.8-.4 1.1-.6 1.2-.6 2.5-1 3.8-1.6.9-.4 1.7-.9 2.5-1.5 1-.8 2-1.7 3-2.6.6-.5 1.1-1 1.6-1.7.2-.3.4-.5.5-.8.1-.1.2-.4.3-.4.2.1-.1 1-.1 1.2zm0-1.1c-.2-.1.1 0 0 0zm33.7 147.2c-.4-.8-.8-1.6-1.1-2.4-.7-1.7-1.3-3.5-1.8-5.3-.8-3-1.3-6.1-1.5-9.2 0-1-.1-1.9 0-2.9 0-.8 0-1.6.2-2.3.2-.6.3 0 .4.3.1.8.2 1.7.2 2.5.3 3.3.7 6.6 1.4 9.8.5 2 1 4 1.7 6 .3 1 .7 1.9 1 2.9.1.2.8 1.8.5 2-.2.1-.9-1.2-1-1.4zm1 1.4c.2-.1-.1.1 0 0zm109.5 3.3c-1.7-1.3-3.4-2.7-5.1-4.1-3.3-2.7-6.3-5.7-9.2-8.8-6.1-6.5-11.5-13.6-16.2-21.2-4.8-7.8-8.6-16-11.8-24.6-3.1-8.3-5.5-16.9-7.8-25.5-1.4-5.4-2.8-10.7-4.2-16.1-1.5-5.9-3-11.7-4.6-17.6-1.1-4.4-2.3-8.8-3.4-13.2-1.2-4.5-2.4-9.1-3.9-13.5-1.5-4.3-3.3-8.5-5.7-12.4-2.3-4-5.1-7.7-7.9-11.3-5.7-7.3-11.6-14.5-17.4-21.8-4.9-6.2-9.9-12.3-14.6-18.6 0-.1-.4-.5-.8-1V175c.1-.3.1-.5.2-.6.2-.7.5-1.5.9-2.2 1.2-2.5 3.1-4.7 5.5-6.2 1.6-1 3.4-1.5 5.2-1.8.9-.1 1.8-.2 2.7-.2.2 0 1.8-.1 1.8.2 0 0 0-.1 0 0 0 .3-1.3.4-1.4.5-.8.1-1.6.3-2.4.4-1.6.3-3.2.7-4.7 1.5-2.5 1.3-4.4 3.4-5.9 5.8-.4.7-.8 1.3-1.1 2-.1.1-.6 1.4-.8 1.3v34.4c.2-.2.6-.5.8-.6.8-.6 1.6-1.2 2.4-1.9 2.9-2.3 5.5-4.9 7.7-7.8 1.5-1.9 2.8-4 4-6.1.6-1.1 1.1-2.2 1.7-3.2.1-.2.9-2.2 1.2-2.1.3.1-.3 1.7-.4 1.8-.3 1.1-.8 2.1-1.3 3.1-.9 2-2.1 3.9-3.4 5.7-2.1 2.9-4.6 5.7-7.4 8-1.6 1.2-3.2 2.5-5 3.3-.1 0-.3.2-.5.2v3.4c3.9 2.9 7.9 5.7 11.3 9.2 1.7 1.7 3.3 3.5 4.6 5.5.7 1 1.2 2.1 1.8 3.2.1.1.9 2.1.8 2.2-.2.1-1.1-2-1.3-2.2-.7-1.1-1.3-2.2-2.1-3.2-1.5-2-3.2-3.8-5-5.4-3.9-3.6-8.4-6.5-12.7-9.6-4.5-3.2-8.9-6.7-13-10.5s-8-7.8-11.7-12c-1.8-2.1-3.5-4.3-5.7-6-2.1-1.7-4.7-2.7-7.2-3.8-4.3-1.9-8.6-3.8-12.8-5.6.1.2.1.3.1.5 0 1.3-1.3 1.9-2.4 2.3-2.4 1-4.4 2.7-6.3 4.4-1.5 1.3-3 2.7-4.9 3.4-2.5.8-5.4.1-7.8-1-1.9-.9-3.6-2.4-4.5-4.3.4 4.8 2.8 9.3 5.9 13 2.1 2.6 4.6 4.8 7.3 6.7 3.8 2.7 7.8 5 11.9 7.3l2.1 1.2c0-.1 0-.1-.1-.2l-.3-1.5c0-.4-.1-2.7.6-2.6.4.1.4.9.4 1.2 0 .4.1.9.1 1.3 0 .3.3 1.7.1 2.3 3.5 2.1 7.1 4.3 10 7.2 2 1.9 3.5 4.1 4.6 6.6 1.1 2.5 1.8 5.3 2.2 8 .5 2.8.7 5.6 1.1 8.5.3 2.8.8 5.7 1.3 8.5 1 4.9 2.5 9.8 4.5 14.4 2.2 5.2 5 10.2 8 15 3 4.9 6.3 9.6 9.6 14.3 3.3 4.7 6.5 9.4 9.9 14.1 3.2 4.4 6.5 8.7 10.1 12.7 3.3 3.7 7 7 10.9 10 .6.4 1.1.8 1.7 1.3.1.1.3.2.4.3 0 .1.1.1 0 .1-.2 0-.7-.4-.9-.5l-1.5-.9c-1.1-.7-2.1-1.4-3.1-2.2-4.1-3.1-7.7-6.7-11-10.5-3.6-4.1-7-8.5-10.2-12.9-3.4-4.6-6.7-9.2-9.9-13.8-3.2-4.6-6.4-9.3-9.3-14.1-1.8-3-3.4-6-4.9-9.1h-25.7c.4.3.7.6.8.7 2 1.8 3.6 3.9 5.3 6 1.1 1.4 2.2 2.7 3.2 4.2.5.6.9 1.2 1.3 1.9 0-.4.1-.8.2-1.1.3-1 .8-1.9 1.3-2.8.4-.7.9-1.4 1.4-2.1.2-.3 1.6-2.5 2-2.2-.1-.1-.3-.2 0 0 .1.1.1 0 0 0 .4.3-.7 2.1-.9 2.3l-1.5 2.4c-.5.8-.9 1.6-1.3 2.4-.2.5-.4 1-.5 1.6 0 .2 0 .9-.3.9.1.4.2.8.3 1.3.3 1.6.7 3.2 1.2 4.7 1.3 3.8 3.3 7.4 5.4 10.8 2.2 3.5 4.7 6.9 7 10.5 2.3 3.5 4.2 7.2 6.1 10.9 3 5.9 5.9 12.1 10.3 17.2 2.7 3.1 5.7 5.7 9 8 3.4 2.4 7.1 4.5 10.7 6.6 3.5 2.1 7.1 4.1 10.6 6.3 2.9 1.7 5.8 3.4 8.6 5.3.1.1 1.4.9 1.3 1.1-.1.2-1.6-.5-1.7-.6l-4.2-2.1c-3.4-1.8-6.7-3.6-10-5.5-3.7-2.1-7.4-4.1-11.1-6.3-3.6-2.1-7.1-4.4-10.2-7.1-3-2.6-5.5-5.5-7.7-8.8-1.6-2.4-3-4.8-4.3-7.4-1.9-3.6-3.6-7.2-5.5-10.8-2-3.7-4.2-7.3-6.5-10.8-4.2-6.4-8.7-13.3-9.5-21.1 0-.4-.1-.8 0-1.2 0-.2-.1-.7 0-1.1l-.6-.3c-.6-.4-1.1-.9-1.5-1.4-1.2-1.2-2.2-2.4-3.3-3.7-1.7-2-3.3-4.1-4.9-6.2-.4-.6-.9-1.2-1.3-1.9-.1-.2-.3-.5-.4-.8h-48c-3.9 0-7.7-1.9-10-5-1.6-2.1-2.5-4.7-2.5-7.5v-12.6h-.1c-.3-.1-.6-.3-.9-.4-1.3-.7-2.5-1.5-3.6-2.4-2.5-1.9-4.7-4.3-6.2-7-1.1-1.9-1.9-3.9-2.3-6-.6-2.9-.6-6.5 1.6-8.7 1.2-1.1 2.8-1.6 4.3-1.8 1.6-.2 3.2-.4 4.9-.4.7 0 1.4.1 2.1.3 0 0 .1 0 .2.1v-11.6c-.3 0-.6-.1-.8-.2-.9-.2-1.8-.5-2.6-.7-1.9-.5-3.8-1.1-5.7-1.7-1.9-.6-4-1.2-5.7-2.2-1.6-1-2.9-2.4-3.8-4-1.4-2.5-2.1-5.8-1.5-8.6.9-3.9 4.8-5.7 8.4-6.2 2.1-.3 4.2-.4 6.3-.4 1.7 0 3.5 0 5.2.2h.2v-17.3c-.3-.1-.7-.2-.8-.3-.8-.3-1.6-.6-2.5-.9-1.8-.7-3.5-1.5-5.2-2.4-1.9-.9-3.7-1.9-5.6-2.9-1.7-1-3.4-2.2-4.4-4-.8-1.6-1.2-3.4-1.3-5.2-.1-1.3-.2-2.5.1-3.8.7-3.9 4.1-6.3 7.8-7 2-.4 4.2-.4 6.3-.3 1.8.1 3.6.4 5.3 1 0 0 .2.1.4.1V52.8c0-4 1.9-7.7 5.1-10 2.1-1.5 4.7-2.4 7.6-2.4h88.8c1.3 0 2.7.1 4.1.4 4.6 1.3 8.2 5.3 9 10 .1.9.1 1.7.1 2.5v76.1c.5.6 1.2 1.3 1.3 1.4 2.4 2.7 4.7 5.5 7.1 8.3 5.7 6.8 11.3 13.6 16.9 20.5 3 3.6 6 7.2 8.9 10.9 2.9 3.6 5.6 7.2 8 11.2 4.8 8 7.4 16.9 9.8 25.8 2.2 8.3 4.3 16.5 6.4 24.8 1 3.7 1.9 7.4 2.9 11.1 2 7.8 4 15.7 6.3 23.5 2.6 8.7 5.5 17.3 9.4 25.6 3.8 8.2 8.5 16 13.9 23.3 5.2 7 11.2 13.6 17.7 19.5 1.5 1.4 3.1 2.7 4.6 4.1.3.3 3.8 3.1 3.7 3.3-.1.2-3.9-2.6-4.2-2.9zm-154.5-59.1zm-73.8-65.5c-.8 0-1.5.1-2.2.2-1.6.2-3.2.4-4.7.8s-2.8 1.2-3.4 2.7c-1.1 2.4-.6 5.4.1 7.8 1.7 5.8 6.1 9.9 10.7 13.5.1 0 .3.3.6.5v-25.5c-.4.1-.8 0-1.1 0zm-1.7-35.2c-2 .1-4 .3-5.9.5-3.5.3-8 1-9.7 4.6-.6 1.4-.7 2.9-.5 4.4.2 1.7.8 3.4 1.8 4.9 1 1.6 2.5 2.8 4.2 3.6 1.9.9 3.9 1.5 5.9 2.2 1.9.7 3.7 1.3 5.5 2l1.5.6v-23.1c-1 .3-2.7.3-2.8.3zm2.2-43.1c-.8-.1-1.6-.2-2.5-.3-2-.2-4-.2-6.1 0-3.6.3-7.9 1.6-9.1 5.5-.4 1.3-.4 2.7-.2 4 .2 1.8.5 3.7 1.5 5.3 1 1.6 2.8 2.6 4.5 3.5 1.8 1 3.7 2.1 5.6 3.1l5.1 2.7c.6.3 1.2.6 1.8 1v-24.8h-.6zm37.8 44.9c1.6 2 4.1 3.1 6.6 3.6 1.2.2 2.5.3 3.7 0 .8-.2 1.6-.7 2.3-1.2 1.9-1.4 3.5-3.1 5.4-4.4 1.1-.8 2.3-1.5 3.6-1.9.9-.3 2.7-.8 2.1-2.2 0-.1-.1-.2-.2-.3-.7-.3-1.4-.6-2.2-.9-2.6-1.1-5.1-2.3-7.7-3.3-2.5-1-5.3-2-8.1-1.8-5 .5-7 5.5-7.1 10 .5.8.9 1.6 1.6 2.4zm43.3 62.3c-.9-5.5-1.1-11.1-2.5-16.5-.7-2.5-1.8-4.9-3.3-7-1.6-2.1-3.6-3.8-5.7-5.3-4.4-3.2-9.2-5.7-13.9-8.5-3-1.7-5.8-3.6-8.6-5.7-3.5-2.6-6.6-5.9-8.9-9.6-2.8-4.4-4.5-9.9-3.5-15.1.5-2.6 1.6-5.1 3.5-6.8 2-1.8 4.6-2.4 7.2-2.2 2.7.2 5.3 1.2 7.8 2.3 2.6 1.1 5.2 2.3 7.8 3.4 5.3 2.3 10.5 4.7 15.8 7 2.5 1.1 5 2.3 7.1 4.1 2.1 1.8 3.7 3.9 5.5 6 3.7 4.3 7.6 8.4 11.8 12.3 3 2.8 6.2 5.5 9.5 8V60.2H195.6v184.6H272c-.1-.3-.1-.5-.1-.7zm33-190.7c0-.8 0-1.6-.1-2.3-.7-4.3-3.9-7.9-8.1-9.1-1.2-.3-2.4-.4-3.8-.4h-88.8c-2.6 0-4.9.7-6.9 2.1-2.9 2.1-4.6 5.5-4.6 9.1v201.1c0 2.5.8 4.9 2.2 6.8 2.1 2.8 5.5 4.5 9 4.5h74.4c-.7-1.6-1.4-3.1-2-4.7-1.8-4.7-3.1-9.6-3.9-14.6h-77.2c-.3-.1-.7-.2-.6-.8V59.9c0-.2 0-.4.1-.6.1-.3.5-.5.9-.5h106.4c.3 0 .5 0 .8.2.3.2.3.6.2 1v151.4c.7.6 1.5 1.1 2.2 1.7V53.4zm-43.5-1h-26.1c-1.2-.2-2.1-1.1-2.4-2.3-.3-1.2.2-2.4 1.2-3.1.8-.5 1.6-.5 2.2-.5h25.1c1 0 1.9.5 2.5 1.4.5.8.6 1.8.3 2.7-.5 1.1-1.6 1.8-2.8 1.8zm1.4-3.9c-.3-.5-.9-.8-1.5-.8h-25.1c-.6 0-1.1 0-1.5.3-.7.5-.8 1.3-.7 1.9.1.6.6 1.2 1.4 1.4h25.9c.7 0 1.4-.4 1.6-1.1.3-.6.3-1.2-.1-1.7zm-22.5 200.6c.9-.3 2-.2 2.9-.2h12.2c.4 0 .7 0 1.1.1 1.6.3 3 1.5 3.4 3.2.2.7.2 1.5.1 2.2v.6c0 1.5-.7 2.9-1.9 3.7-.7.5-1.5.7-2.3.7h-14c-.7 0-1.4-.1-2.2-.4-1.4-.7-2.3-2.2-2.4-3.8v-2.4c.3-1.8 1.5-3.2 3.1-3.7zm-1.8 5.5v.5c0 1.2.7 2.2 1.7 2.7.5.3 1.1.3 1.7.3h14c.6 0 1.2-.2 1.7-.5.9-.6 1.3-1.5 1.3-2.7v-.7c0-.7 0-1.3-.1-1.9-.3-1.2-1.3-2.1-2.4-2.3h-14.2c-.6 0-1.1 0-1.5.2-1.1.4-2 1.4-2.1 2.6-.1.6-.1 1.2-.1 1.8zm-28.7-138.8h12.9v1.8h-12.9c-1.5 0-2.8 1.2-2.8 2.8v3.7c0 1.5 1.2 2.8 2.8 2.8h11.1v1.8h-8.1l6.2 27.8c.5 2.1 2.3 3.6 4.5 3.6h50.2c2.2 0 4-1.5 4.5-3.6l6.2-27.8h-8.1v-1.8h11.1c1.5 0 2.8-1.2 2.8-2.8v-3.7c0-1.5-1.2-2.8-2.8-2.8h-12.9v-1.8h12.9c2.5 0 4.6 2.1 4.6 4.6v3.7c0 2.5-2.1 4.6-4.6 4.6h-1.1l-6.3 28.2c-.7 3-3.3 5.1-6.3 5.1h-50.2c-3.1 0-5.6-2.1-6.3-5.1l-6.3-28.2h-1.1c-2.5 0-4.6-2.1-4.6-4.6v-3.7c0-2.5 2.1-4.6 4.6-4.6zm56.3 36v-18.5h1.8v18.5h-1.8zM258.8 95l1.7-.7 11.1 27.7-1.7.7L258.8 95zm-1.9 56.8v-18.5h1.8v18.5h-1.8zm-9.2 0v-18.5h1.8v18.5h-1.8zm-9.3 0v-18.5h1.8v18.5h-1.8zm-4.6-36h29.5v1.8h-29.5v-1.8zm-4.6 36v-18.5h1.8v18.5h-1.8zm-3.6-29.8l11.1-27.7 1.7.7-11.1 27.7-1.7-.7zm98.4 66.5c-.2-.1.1 0 0 0zm-69.3 16.4c-.3-.1.3 0 0 0zm-101.3-29c-16.2-16.1-16.2-42.4 0-58.6l.8.9c-15.7 15.7-15.7 41.2 0 56.9l-.8.8zM142 187.3l-.8.8C130.1 177 124 162.2 124 146.5s6.1-30.5 17.2-41.6l.8.8c-22.5 22.6-22.5 59.2 0 81.6zM129.2 200l-.8.8c-14.5-14.5-22.5-33.8-22.5-54.3s8-39.8 22.5-54.3l.8.8c-29.4 29.6-29.4 77.6 0 107zm202.7 145.6c0 .1-.4.6-.5.6-.1 0 0-.4.1-.5.3-.7.7-1.4 1.2-1.9 1.3-1.4 2.9-2.4 4.5-3.3 5.3-3.1 11-5.4 16-9 2.9-2.1 5.8-4.5 8.5-6.9 2.7-2.4 5.1-4.9 7.5-7.5.1-.1.5-.7.7-.6.3.2-1.6 2.5-1.7 2.7-1.1 1.4-2.3 2.7-3.5 4-2.6 2.7-5.5 5.1-8.5 7.5-1.7 1.3-3.4 2.6-5.3 3.7-3.2 2-6.6 3.6-10 5.3-1.8.9-3.5 1.8-5.2 2.8-1.4.7-2.8 1.7-3.8 3.1zm37.9-29.2c-.1-.1.1.1 0 0z"/></svg>