<svg xmlns="http://www.w3.org/2000/svg" width="340" height="409"><path fill-rule="evenodd" d="M338.28 199.758h-1.493v209.238h-1.432V51.182c0-27.428-22.207-49.742-49.504-49.742H54.128c-27.297 0-49.504 22.314-49.504 49.742v357.814H3.192V259.915H1.681a1.694 1.694 0 0 1-1.688-1.696v-49.295c0-.935.757-1.696 1.688-1.696h1.511v-9.327H1.681a1.694 1.694 0 0 1-1.688-1.696V146.91c0-.935.757-1.696 1.688-1.696h1.511v-32.239H2.81v-.006h-.275V85.877h.275v-.007h.382V51.182C3.192 22.961 26.042.001 54.128.001h231.723c28.086 0 50.936 22.96 50.936 51.181v94.019h1.493c.948 0 1.718.774 1.718 1.726v51.105c0 .952-.77 1.726-1.718 1.726zM3.192 146.627H1.681a.282.282 0 0 0-.281.283v49.295c0 .156.126.282.281.282h1.511v-49.86zm0 62.015H1.681a.281.281 0 0 0-.281.282v49.295c0 .156.126.283.281.283h1.511v-49.86zm335.374-61.715a.286.286 0 0 0-.286-.287h-1.493v51.68h1.493a.287.287 0 0 0 .286-.288v-51.105zM53.781 4.917h232.632c25.078 0 45.481 20.501 45.481 45.7v358.379h-1.432V50.617c0-24.405-19.759-44.261-44.049-44.261H53.781c-24.289 0-44.049 19.856-44.049 44.261v358.379H8.3V50.617c0-25.199 20.402-45.7 45.481-45.7zm65.347 38.88c0-3.722 3.013-6.75 6.718-6.75 3.704 0 6.717 3.028 6.717 6.75s-3.013 6.75-6.717 6.75c-3.705 0-6.718-3.028-6.718-6.75zm12.003 0c0-2.929-2.371-5.311-5.285-5.311-2.915 0-5.286 2.382-5.286 5.311 0 2.928 2.371 5.311 5.286 5.311 2.914 0 5.285-2.383 5.285-5.311zm-8.37 0c0-1.71 1.383-3.1 3.085-3.1 1.7 0 3.084 1.39 3.084 3.1a3.095 3.095 0 0 1-3.084 3.099 3.095 3.095 0 0 1-3.085-3.099zm4.737 0c0-.917-.741-1.661-1.652-1.661-.913 0-1.653.744-1.653 1.661 0 .916.74 1.66 1.653 1.66.911 0 1.652-.744 1.652-1.66zm36.823-25.124c0-2.066 1.673-3.748 3.73-3.748s3.729 1.682 3.729 3.748c0 2.066-1.672 3.747-3.729 3.747-2.057 0-3.73-1.681-3.73-3.747zm6.027 0a2.305 2.305 0 0 0-2.297-2.309 2.306 2.306 0 0 0-2.298 2.309 2.306 2.306 0 0 0 2.298 2.309 2.305 2.305 0 0 0 2.297-2.309zm25.555 25.934c0 2.183-1.767 3.959-3.939 3.959h-47.826c-2.172 0-3.94-1.776-3.94-3.959s1.768-3.959 3.94-3.959h47.826c2.172 0 3.939 1.776 3.939 3.959zm-54.273 0c0 1.39 1.125 2.52 2.508 2.52h47.826a2.516 2.516 0 0 0 2.507-2.52c0-1.39-1.124-2.52-2.507-2.52h-47.826a2.517 2.517 0 0 0-2.508 2.52zM23.329 80.551h293.535a2.997 2.997 0 0 1 2.987 3.001v325.444h-1.432V83.552c0-.861-.698-1.563-1.555-1.563H23.329a1.56 1.56 0 0 0-1.554 1.563v325.444h-1.432V83.552a2.997 2.997 0 0 1 2.986-3.001z"/></svg>