<svg xmlns="http://www.w3.org/2000/svg" width="122" height="174"><path fill-rule="evenodd" fill="#1838E0" d="M111.771 174H10.229C4.589 174 0 169.405 0 163.758V10.242C0 4.594 4.589 0 10.229 0h66.224c2.732 0 5.301 1.065 7.233 3l35.318 35.36A10.182 10.182 0 0 1 122 45.602v118.156c0 5.647-4.589 10.242-10.229 10.242zm8.279-128.398a8.241 8.241 0 0 0-2.425-5.861L82.307 4.38a8.223 8.223 0 0 0-5.854-2.428H10.229c-4.565 0-8.279 3.719-8.279 8.29v153.516c0 4.571 3.714 8.289 8.279 8.289h101.542c4.565 0 8.279-3.718 8.279-8.289V45.602zM46.734 153.619H20.08V87.447h81.117v66.172H46.734zm1.95-1.952h23.909v-21.913H48.684v21.913zm-26.653 0h24.703v-21.913H22.031v21.913zM48.684 89.4v21.913h23.909V89.4H48.684zm50.563 0H74.543v21.913h24.704V89.4zm0 23.865H46.734V89.4H22.031v38.402h77.216v-14.537zm0 16.489H74.543v21.913h24.704v-21.913z"/></svg>