<svg version="1" xmlns="http://www.w3.org/2000/svg" width="2133.333" height="2133.333" viewBox="0 0 1600.000000 1600.000000"><path d="M0 800v389h1600V411H0v389zm425-216v33l-42.2.2-42.3.3-.5 211-.5 211-36.2.3-36.3.2-.2-211.2-.3-211.3-42.7-.3-42.8-.2v-66h244v33zm171.5 100.6c25.9 73.5 47.5 134.3 48.2 135.3.8 1.1 1.5 1.3 2.3.5.5-.6 6.4-16.8 12.9-36 6.6-19.2 24.8-72.7 40.6-118.9s31-90.9 33.8-99.3l5.2-15.2H810l-.2 244.2-.3 244.3-34.7.3-34.8.2V887.5c0-144.7-.1-152.5-1.8-152.5-1.4 0-8.2 19.6-38.2 109.5L663.5 954h-38.1L589 844.7c-28.6-85.6-36.9-109.3-38.2-109.5-1.7-.3-1.8 7.5-1.8 152.2V1040l-34.7-.2-34.8-.3-.3-244.3L479 551h70.5l47 133.6zM1047 552c0 .6-20.5 71.6-45.6 157.8-25.1 86.2-47.6 163.5-50 171.8-2.4 8.3-4.6 15.9-5 16.8-.6 1.5 2.4 1.6 34.5 1.6h35.1l.2-68.3.3-68.2h69l.3 69.7.2 69.8 17.3.2 17.2.3v63l-17.2.3-17.3.2v76h-70v-76l-68.2-.2-68.3-.3-.3-27.8-.2-27.9 4.4-15.1c2.5-8.4 13.7-46.7 25.1-85.2C919.8 772 938.1 710.1 949 673c10.9-37.1 23.3-78.9 27.4-92.8 4.1-14 7.6-25.6 7.9-25.9.5-.5 43.1-2.9 55.5-3.2 4.4 0 7.2.3 7.2.9zm207.2 192.7l.3 193.8 2.1 6.5c7.6 23.6 21.4 34 44.9 34 23.7 0 38.1-11.1 45.2-34.7 1.7-5.4 1.8-18.1 2.1-199.6l.2-193.7h70v186.2c0 115.2-.4 189.9-1 195.8-6.9 66.1-42 105.3-100.3 112.1-12.8 1.5-32.3.6-43.7-2-52.7-12-83.2-50.7-88.9-113.1-.7-7.6-1.1-74.5-1.1-195.3V551h70l.2 193.7z"/></svg>